<svg xmlns:dc="http://purl.org/dc/elements/1.1/" xmlns:cc="http://creativecommons.org/ns#" xmlns:rdf="http://www.w3.org/1999/02/22-rdf-syntax-ns#" xmlns:svg="http://www.w3.org/2000/svg" xmlns="http://www.w3.org/2000/svg" xmlns:sodipodi="http://sodipodi.sourceforge.net/DTD/sodipodi-0.dtd" xmlns:inkscape="http://www.inkscape.org/namespaces/inkscape" version="1.1" viewBox="0 0 26.458333 33.0729175" x="0px" y="0px"><g transform="translate(0,-270.54165)"><g transform="translate(0.00336753,0.64089223)"><path d="m 12.798952,272.57088 -0.15658,0.002 c -0.476992,0.004 -0.880936,0.0203 -1.179256,0.0491 -0.149161,0.0144 -0.270898,0.0319 -0.367419,0.0548 -0.04826,0.0115 -0.09033,0.0237 -0.128675,0.0408 -0.03835,0.0171 -0.07649,0.0356 -0.109554,0.0858 -0.109285,0.16598 -0.122188,0.38894 -0.111621,0.6563 0.01057,0.26735 0.05344,0.57881 0.109554,0.90227 0.107603,0.62021 0.258101,1.27993 0.309542,1.70583 -0.05804,0.0701 -0.08357,0.15086 -0.0987,0.21239 a 0.13230472,0.13230472 0 0 0 -0.0036,0.0233 l -0.06253,0.92501 c -1.4194856,0.14844 -2.6270276,0.43634 -3.5000451,0.76843 -0.035789,0.0136 -0.1370156,0.0466 -0.2284098,0.0858 -0.045697,0.0196 -0.090667,0.0416 -0.1312582,0.0687 -0.020296,0.0135 -0.039877,0.0281 -0.060461,0.0527 -0.020585,0.0246 -0.045907,0.0659 -0.038757,0.12454 a 0.13230472,0.13230472 0 0 0 0.00775,0.0372 c 0.042274,0.1004 0.123721,0.12087 0.1777669,0.13694 0.053146,0.0158 0.1006684,0.02 0.1111043,0.0212 1.3160552,0.17914 2.6360401,0.34041 3.9765009,0.48162 -0.200191,0.3689 -0.311327,0.74755 -0.423747,1.05162 -0.06551,0.1772 -0.133987,0.32758 -0.214974,0.43563 -0.08099,0.10805 -0.168997,0.17542 -0.298689,0.20722 -1.6028106,0.39301 -3.7017536,1.02172 -5.4802856,1.82986 -0.8892659,0.40407 -1.6982691,0.8539 -2.3280232,1.34411 -0.6297542,0.49021 -1.0851979,1.02238 -1.2423014,1.6092 l -0.00982,0.0408 0.015503,0.0413 c 0.025266,0.0659 0.079409,0.11787 0.1369426,0.14417 0.057534,0.0263 0.1149329,0.0337 0.1700154,0.0315 0.1101648,-0.004 0.2169733,-0.0396 0.3085084,-0.078 1.0159519,-0.4263 1.9679405,-0.74424 2.8602906,-0.9772 2.6957152,-0.13935 5.3387842,0.53553 7.8909912,0.98651 0.09869,0.18536 0.238762,0.43307 0.444934,0.75706 0.189453,0.29771 0.118377,0.68724 -0.05684,1.09605 -0.175222,0.40882 -0.445749,0.81089 -0.597896,1.11518 -0.52526,1.00801 -0.673029,1.45528 -0.763261,1.90945 -0.0903,0.45449 -0.124205,0.90075 -0.43925,1.96577 l -0.03462,0.11782 0.114721,0.0434 c 2.359558,0.89853 5.332104,0.46776 7.882723,-0.75293 2.55062,-1.22069 4.689119,-3.23522 5.350578,-5.56038 l 0.02377,-0.0842 -0.0677,-0.0548 c 0,0 -0.348165,-0.28105 -1.244368,-1.24127 l -0.0052,-0.005 -0.0057,-0.005 c -0.56233,-0.47968 -1.46843,-0.80362 -2.184879,-1.17771 -0.358225,-0.18705 -0.666387,-0.38578 -0.856279,-0.60151 -0.189892,-0.21573 -0.268327,-0.43225 -0.196887,-0.72141 0.05588,-0.19551 0.229401,-0.79359 0.403076,-1.41593 0.159684,-0.57221 0.308328,-1.12922 0.376721,-1.45211 1.020962,0.0222 2.0595,0.0366 3.141927,0.0331 0.100433,-3.1e-4 0.165519,-0.003 0.214974,-0.0103 0.02473,-0.003 0.04589,-0.007 0.07235,-0.0176 0.01323,-0.005 0.02814,-0.0102 0.04858,-0.0289 0.0051,-0.005 0.01516,-0.0171 0.0155,-0.0176 3.44e-4,-4.3e-4 0.01581,-0.0234 0.01602,-0.0238 4.23e-4,-8.8e-4 0.01346,-0.0652 0.01344,-0.0661 -0.0022,-0.078 -0.04586,-0.12281 -0.0801,-0.15244 -0.03424,-0.0296 -0.06942,-0.0508 -0.103353,-0.0682 -0.03394,-0.0174 -0.06599,-0.0305 -0.09198,-0.0413 -0.02599,-0.0108 -0.05268,-0.0227 -0.04289,-0.0176 -0.99386,-0.52121 -1.945632,-0.97242 -3.339848,-1.30276 l 0.0646,-0.97824 a 0.13230472,0.13230472 0 0 0 0,-0.002 c 0.0031,-0.0587 -0.0061,-0.13153 -0.03772,-0.19637 0.08194,-0.3009 0.271385,-1.00104 0.439766,-1.67638 0.08765,-0.35156 0.167202,-0.69084 0.220658,-0.95292 0.02673,-0.13105 0.0479,-0.24267 0.05891,-0.33021 0.0055,-0.0438 0.0076,-0.0807 0.0078,-0.11524 2.17e-4,-0.0345 0.01233,-0.0625 -0.02739,-0.12506 -0.08379,-0.13206 -0.226322,-0.18016 -0.423749,-0.24391 -0.197428,-0.0637 -0.452878,-0.12257 -0.759644,-0.17777 -0.613531,-0.1104 -1.424152,-0.20617 -2.31252,-0.28525 -1.724947,-0.15354 -3.715259,-0.23362 -5.140771,-0.22686 z m -0.201538,0.26769 h 0.04702 c 1.417497,-0.0127 3.502234,0.0752 5.269446,0.23254 0.883607,0.0787 1.689374,0.17524 2.289266,0.28319 0.299946,0.054 0.548481,0.11043 0.726571,0.16794 0.168113,0.0543 0.255224,0.11985 0.265616,0.12713 -6.08e-4,0.0175 -0.0016,0.04 -0.0057,0.0724 -0.0095,0.0753 -0.02878,0.1831 -0.05478,0.31057 -0.052,0.25493 -0.131932,0.59138 -0.219108,0.94103 -0.163895,0.65734 -0.341079,1.31179 -0.425814,1.62316 -3.125584,-0.0832 -6.057145,-0.27428 -9.073864,-0.61134 -0.05789,-0.45457 -0.195977,-1.0731 -0.299207,-1.66811 -0.05519,-0.31809 -0.09725,-0.62105 -0.10697,-0.86713 -0.0095,-0.24123 0.02357,-0.41995 0.06615,-0.4899 0.01513,-0.007 0.04288,-0.017 0.0801,-0.0258 0.0761,-0.0181 0.190037,-0.0349 0.33228,-0.0486 0.272953,-0.0264 0.661477,-0.0422 1.108976,-0.047 z m -1.224732,3.41064 c 3.035516,0.33961 5.983935,0.5322 9.127608,0.61547 0.0015,0.005 0.0091,0.004 0.0078,0.0305 l -0.0646,0.96118 c -0.309381,-10e-4 -0.626767,-0.009 -0.947229,-0.0186 -2.560354,-0.10075 -5.469685,-0.43602 -8.230505,-0.6103 l 0.05839,-0.8909 c 0.01129,-0.0451 0.0297,-0.0651 0.04858,-0.0873 z m -0.259416,1.23403 c 0.03077,0.002 0.06221,0.004 0.09302,0.006 3.091844,0.20348 6.337195,0.61507 9.135876,0.63459 0.0745,10e-4 0.152556,0.005 0.226343,0.006 1.344757,0.3102 2.241297,0.74077 3.195154,1.2361 -6.153731,0.009 -11.236279,-0.41076 -16.2579223,-1.08985 0.02967,-0.0107 0.067499,-0.0254 0.08785,-0.0331 0.8620582,-0.32792 2.0824491,-0.61611 3.5196813,-0.75965 z m 0.494027,1.55133 c 1.184536,0.12185 2.384248,0.22946 3.616833,0.31678 -0.03875,0.0658 -0.07457,0.12892 -0.115238,0.19843 -0.0039,0.007 -0.008,0.0125 -0.01188,0.0191 -0.0823,0.13924 -0.160991,0.28618 -0.172082,0.45372 l -10e-4,0.009 v 5.3e-4 5.2e-4 l 10e-4,0.009 c 0.0029,0.0378 0.0035,0.0795 0.0067,0.12764 1.48e-4,0.002 1.78e-4,0.01 0.001,0.0227 0.01506,0.22854 0.02415,0.45441 0.02739,0.67799 5.03e-4,0.0432 -0.0011,0.0852 -10e-4,0.12816 7.41e-4,0.17131 -0.0011,0.34123 -0.0078,0.50798 -0.06072,1.35094 -0.373871,2.53401 -0.993738,3.2613 -1.102528,-0.33736 -2.807947,-0.89969 -5.172294,-0.8878 -0.5379945,0.003 -1.1126817,0.0382 -1.7197917,0.1111 -0.043069,0.005 -0.085256,0.009 -0.1286743,0.0145 -0.033181,0.004 -0.06687,0.009 -0.1002524,0.0139 -0.6494124,0.086 -1.3378466,0.21789 -2.0655068,0.40566 -0.00419,2.5e-4 -0.00842,9e-5 -0.013436,0.002 v 0.002 c -0.9096946,0.23546 -1.8796161,0.5571 -2.914034,0.99115 -0.06746,0.0283 -0.1433877,0.0479 -0.1989543,0.0527 0.1549597,-0.47314 0.5140403,-0.94561 1.0857217,-1.39061 0.6045949,-0.47063 1.4002586,-0.9099 2.2773804,-1.30845 1.7542438,-0.79711 3.8405845,-1.42629 5.4317104,-1.81643 0.191583,-0.047 0.339632,-0.16095 0.447518,-0.30489 0.102133,-0.13626 0.173872,-0.29852 0.239778,-0.47335 l 0.477491,0.13901 c -0.0058,0.0403 -0.01431,0.0797 -0.01654,0.12092 -0.03331,0.61657 0.36383,1.15032 0.910539,1.15032 0.546709,0 0.986277,-0.5198 1.019576,-1.13637 0.03331,-0.61656 -0.363831,-1.14877 -0.910539,-1.14877 -0.428908,0 -0.788457,0.32087 -0.941028,0.75603 l -0.447518,-0.13022 c 0.10463,-0.29435 0.214631,-0.60413 0.388607,-0.89452 z m 3.911389,0.33486 c 1.618202,0.1104 3.297148,0.18636 5.050855,0.22841 -0.06599,0.30476 -0.202039,0.82689 -0.358635,1.38803 -0.173776,0.62271 -0.348201,1.22335 -0.404109,1.41904 l -5.3e-4,0.002 -0.001,0.003 c -0.09146,0.37018 0.02618,0.69936 0.255281,0.95963 0.229102,0.26028 0.562538,0.46763 0.93276,0.66095 0.740068,0.38642 1.636838,0.71982 2.134753,1.14411 2.52e-4,2.2e-4 7.94e-4,2.9e-4 0.001,5.3e-4 0.833869,0.89195 1.145959,1.14872 1.18649,1.18236 -0.653873,2.19117 -2.706058,4.1441 -5.180562,5.32835 -2.461845,1.1782 -5.316135,1.58068 -7.564396,0.76998 0.263303,-0.93135 0.334645,-1.44937 0.414962,-1.85363 0.08621,-0.4339 0.218082,-0.84132 0.738973,-1.84071 l 5.29e-4,-0.001 5.29e-4,-10e-4 c 0.136858,-0.27371 0.415168,-0.68833 0.604098,-1.12913 0.18893,-0.4408 0.297321,-0.93329 0.03721,-1.34204 -0.154134,-0.24221 -0.234159,-0.39265 -0.324528,-0.555 0.06415,0.0116 0.12729,0.0236 0.191719,0.0341 l 0.01034,0.002 h 0.01085 c 0,0 5.29e-4,0 5.29e-4,0 0.0258,-6e-5 0.04483,-0.004 0.06098,-0.009 0.01642,-0.006 0.02978,-0.0126 0.04392,-0.0196 0,0 5.29e-4,-5.3e-4 5.29e-4,-5.3e-4 0.02809,-0.0141 0.0559,-0.0315 0.08578,-0.0522 0,0 5.29e-4,-5.2e-4 5.29e-4,-5.2e-4 0.06014,-0.0419 0.128786,-0.0976 0.203605,-0.16537 0.02009,-0.0182 0.04231,-0.0429 0.06304,-0.063 0.114762,-0.10905 0.234851,-0.23849 0.34985,-0.38086 h 5.29e-4 c 0,0 0,-5.3e-4 0,-5.3e-4 l 0.05633,-0.062 c 0.939704,-1.04196 1.204458,-2.891 1.075387,-4.84002 -1.48e-4,-0.002 -1.78e-4,-0.01 -0.001,-0.0227 -0.0022,-0.033 -0.0032,-0.0715 -0.0057,-0.11214 0.0011,-0.0161 0.01099,-0.0374 0.01499,-0.0553 0.01827,-0.081 0.058,-0.17502 0.120406,-0.2806 0.0025,-0.004 0.0053,-0.009 0.0078,-0.0134 0.0601,-0.10075 0.126914,-0.20833 0.186035,-0.32091 z m -2.91145,0.19792 c 0.373295,0 0.671885,0.37158 0.644922,0.87075 -0.02696,0.49917 -0.380663,0.8847 -0.753959,0.8847 -0.373296,0 -0.673435,-0.37158 -0.646472,-0.87075 0.02696,-0.49917 0.382213,-0.8847 0.755509,-0.8847 z m -3.8219888,4.57595 c 2.2689688,-0.0114 3.8813438,0.51092 4.9903928,0.85163 -0.102712,0.11831 -0.208412,0.24452 -0.302824,0.33021 -0.0044,0.004 -0.007,0.005 -0.01137,0.009 -0.06365,0.0569 -0.123138,0.10477 -0.166398,0.13488 -0.02108,0.0147 -0.03683,0.0251 -0.04806,0.031 -0.14425,-0.0242 -0.291835,-0.0525 -0.4408,-0.0786 l -0.264583,-0.0465 0.0021,0.004 c -2.086786,-0.36037 -4.2638335,-0.78987 -6.4931434,-0.86299 0.9544751,-0.17072 1.9359954,-0.36901 2.7347169,-0.37311 z" style="color:#000000;font-style:normal;font-variant:normal;font-weight:normal;font-stretch:normal;font-size:medium;line-height:normal;font-family:sans-serif;font-variant-ligatures:normal;font-variant-position:normal;font-variant-caps:normal;font-variant-numeric:normal;font-variant-alternates:normal;font-variant-east-asian:normal;font-feature-settings:normal;font-variation-settings:normal;text-indent:0;text-align:start;text-decoration:none;text-decoration-line:none;text-decoration-style:solid;text-decoration-color:#000000;letter-spacing:normal;word-spacing:normal;text-transform:none;writing-mode:lr-tb;direction:ltr;text-orientation:mixed;dominant-baseline:auto;baseline-shift:baseline;text-anchor:start;white-space:normal;shape-padding:0;shape-margin:0;inline-size:0;clip-rule:nonzero;display:inline;overflow:visible;visibility:visible;opacity:1;isolation:auto;mix-blend-mode:normal;color-interpolation:sRGB;color-interpolation-filters:linearRGB;solid-color:#000000;solid-opacity:1;vector-effect:none;fill:#000000;fill-opacity:1;fill-rule:evenodd;stroke:none;stroke-width:0.264583;stroke-linecap:butt;stroke-linejoin:miter;stroke-miterlimit:4;stroke-dasharray:none;stroke-dashoffset:0;stroke-opacity:1;color-rendering:auto;image-rendering:auto;shape-rendering:auto;text-rendering:auto;enable-background:accumulate;stop-color:#000000;stop-opacity:1"/></g></g><text x="0" y="41.458334" fill="#000000" font-size="5px" font-weight="bold" font-family="'Helvetica Neue', Helvetica, Arial-Unicode, Arial, Sans-serif">Created by Ahmad Arzaha</text><text x="0" y="46.458334" fill="#000000" font-size="5px" font-weight="bold" font-family="'Helvetica Neue', Helvetica, Arial-Unicode, Arial, Sans-serif">from the Noun Project</text></svg>